# AST/ASF file generated using VICON BodyLanguage
# -----------------------------------------------
:version 1.10
:name VICON
:units
  mass 1.0
  length 0.45
  angle deg
:documentation
   .ast/.asf automatically generated from VICON data using
   VICON BodyBuilder and BodyLanguage model FoxedUp or BRILLIANT.MOD
:root
   order TX TY TZ RX RY RZ
   axis XYZ
   position 0 0 0  
   orientation 0 0 0 
:bonedata
  begin
     id 1 
     name lhipjoint
     direction 0.606768 -0.715223 0.346827 
     length 2.41543 
     axis 0 0 0  XYZ
  end
  begin
     id 2 
     name lfemur
     direction 0.34202 -0.939693 0  
     length 7.2778  
     axis 0 0 20  XYZ
    dof rx ry rz
    limits (-160.0 20.0)
           (-70.0 70.0)
           (-60.0 70.0)
  end
  begin
     id 3 
     name ltibia
     direction 0.34202 -0.939693 0   
     length 7.61811   
     axis 0 0 20   XYZ
    dof rx
    limits (-10.0 170.0)
  end
  begin
     id 4 
     name lfoot
     direction 0.0823924 -0.226371 0.97055   
     length 2.33618   
     axis -90 7.62852e-016 20   XYZ
    dof rx rz
    limits (-45.0 90.0)
           (-70.0 20.0)
  end
  begin
     id 5 
     name ltoes
     direction 1.53554e-011 -4.21934e-011 1   
     length 1.17015   
     axis -90 7.62852e-016 20   XYZ
    dof rx
    limits (-90.0 20.0)
  end
  begin
     id 6 
     name rhipjoint
     direction -0.6077 -0.714582 0.346516   
     length 2.4176  
     axis 0 0 0  XYZ 
  end
  begin
     id 7 
     name rfemur
     direction -0.34202 -0.939693 0   
     length 7.28127   
     axis 0 0 -20   XYZ
    dof rx ry rz
    limits (-160.0 20.0)
           (-70.0 70.0)
           (-70.0 60.0)
  end
  begin
     id 8 
     name rtibia
     direction -0.34202 -0.939693 0   
     length 7.77648   
     axis 0 0 -20   XYZ
    dof rx
    limits (-10.0 170.0)
 end
 begin
     id 9 
     name rfoot
     direction -0.0809463 -0.222398 0.97159   
     length 2.37533  
     axis -90 -7.62852e-016 -20   XYZ
    dof rx rz
    limits (-45.0 90.0)
           (-20.0 70.0)
  end
  begin
     id 10 
     name rtoes
     direction -1.53568e-011 -4.21714e-011 1   
     length 1.18972   
     axis -90 -7.62852e-016 -20   XYZ
    dof rx
    limits (-90.0 20.0)
  end
  begin
     id 11 
     name lowerback
     direction 0.010968 0.991932 -0.126297   
     length 2.21698   
     axis 0 0 0   XYZ
    dof rx ry rz
    limits (-20.0 45.0)
           (-30.0 30.0)
           (-30.0 30.0)
  end
  begin
     id 12 
     name upperback
     direction 0.0167007 0.997503 -0.0686276   
     length 2.22371   
     axis 0 0 0   XYZ
    dof rx ry rz
    limits (-20.0 45.0)
           (-30.0 30.0)
           (-30.0 30.0)
  end
  begin
     id 13 
     name thorax
     direction 0.0111721 0.999885 -0.0102878   
     length 2.25242   
     axis 0 0 0   XYZ
    dof rx ry rz
    limits (-20.0 45.0)
           (-30.0 30.0)
           (-30.0 30.0)
  end
  begin
     id 14 
     name lowerneck
     direction -0.0120265 0.990428 0.137508   
     length 1.57674   
     axis 0 0 0   XYZ
    dof rx ry rz
    limits (-20.0 45.0)
           (-30.0 30.0)
           (-30.0 30.0)
  end
  begin
     id 15 
     name upperneck
     direction 0.0175669 0.998907 0.0433089   
     length 1.5618   
     axis 0 0 0   XYZ
    dof rx ry rz
    limits (-20.0 45.0)
           (-30.0 30.0)
           (-30.0 30.0)
  end
  begin
     id 16
     name head
     direction 0.00754609 0.99997 0.00185367  
     length 1.60579  
     axis 0 0 0   XYZ
    dof rx ry rz
    limits (-20.0 45.0)
           (-30.0 30.0)
           (-30.0 30.0)
  end
  begin
     id 17 
     name lclavicle
     direction 0.885866 0.429166 -0.176231  
     length 3.44967  
     axis 0 0 0   XYZ
    dof ry rz
    limits (-20.0 10.0)
           (0.0 20.0)
  end
  begin
     id 18 
     name lhumerus
     direction 1 -4.48973e-011 -1.90255e-027   
     length 5.20607   
     axis 180 -30 -90   XYZ
    dof rx ry rz
    limits (-60.0 90.0)
           (-90.0 90.0)
           (-90.0 90.0)
  end
  begin
     id 19
     name lradius
     direction 1 -4.48956e-011 9.87925e-027   
     length 3.39961   
     axis 180 -30 -90   XYZ
    dof rx
    limits (-10.0 170.0)
  end
  begin
     id 20
     name lwrist
     direction 1 -4.48985e-011 1.73247e-026   
     length 1.6998   
     axis -9.60847e-015 90 90   XYZ
    dof ry
    limits (-180.0 0.0)
 end
  begin
     id 21 
     name lhand
     direction 1 -4.48798e-011 3.46119e-026   
     length 0.519693   
     axis -2.21073e-014 90 90   XYZ
    dof rx rz
    limits (-90.0 90.0)
           (-45.0 45.0)
  end
  begin
     id 22 
     name lfingers
     direction 1 -4.48938e-011 6.92797e-026   
     length 0.41899   
     axis -4.42155e-014 90 90   XYZ
    dof rx
    limits (0.0 90.0)
  end
  begin
     id 23
     name lthumb
     direction 0.707107 -6.34952e-011 0.707107   
     length 0.601588   
     axis -90 45 6.0103e-014   XYZ
    dof rx rz
    limits (-45.0 45.0)
           (-45.0 45.0)
  end
  begin
     id 24 
     name rclavicle
     direction -0.866736 0.456792 -0.200276   
     length 3.45032  
     axis 0 0 0   XYZ 
    dof ry rz
    limits (-10.0 20.0)
           (-20.0 0.0)
  end
  begin
     id 25 
     name rhumerus
     direction -1 -4.4897e-011 8.65094e-028  
     length 5.32214   
     axis 180 30 90   XYZ
    dof rx ry rz
    limits (-90.0 60.0)
           (-90.0 90.0)
           (-90.0 90.0)
  end
  begin
     id 26 
     name rradius
     direction -1 -4.48987e-011 1.08427e-026   
     length 3.51208   
     axis 180 30 90   XYZ
    dof rx
    limits (-10.0 170.0)
  end
  begin
     id 27 
     name rwrist
     direction -1 -4.48961e-011 1.73222e-026   
     length 1.75604   
     axis -9.60847e-015 -90 -90   XYZ
    dof ry
    limits (-180.0 0.0)
  end
  begin
     id 28
     name rhand
     direction -1 -4.48895e-011 3.46314e-026   
     length 0.586681   
     axis -2.21073e-014 -90 -90   XYZ
    dof rx rz
    limits (-90.0 90.0)
           (-45.0 45.0)
  end
  begin
     id 29
     name rfingers
     direction -1 -4.48968e-011 6.92916e-026   
     length 0.472997   
     axis -4.42155e-014 -90 -90   XYZ
    dof rx
    limits (0.0 90.0)
  end
  begin
     id 30
     name rthumb
     direction -0.707107 -6.34848e-011 0.707107   
     length 0.679133   
     axis -90 -45 -6.0103e-014   XYZ
    dof rx rz
    limits (-45.0 45.0)
           (-45.0 45.0)
  end
:hierarchy
  begin
    root lhipjoint rhipjoint lowerback
    lhipjoint lfemur
    lfemur ltibia
    ltibia lfoot
    lfoot ltoes
    rhipjoint rfemur
    rfemur rtibia
    rtibia rfoot
    rfoot rtoes
    lowerback upperback
    upperback thorax
    thorax lowerneck lclavicle rclavicle
    lowerneck upperneck
    upperneck head
    lclavicle lhumerus
    lhumerus lradius
    lradius lwrist
    lwrist lhand lthumb
    lhand lfingers
    rclavicle rhumerus
    rhumerus rradius
    rradius rwrist
    rwrist rhand rthumb
    rhand rfingers
  end

#!OML:ASF H:\Dans Jumps\Project 1\Capture day 1\Session 1\subject.ASF
:FULLY-SPECIFIED
:DEGREES
1
root 0.0962938 17.5503 -14.3982 7.93485 1.09994 -1.29778
lowerback -0.447398 -0.796234 1.0255
upperback 5.581 -1.19924 1.87937
thorax 6.05543 -0.596873 1.31033
lowerneck -10.5792 -0.364704 -2.99847
upperneck 36.0591 -0.388141 1.67925
head 14.0668 -0.352834 1.15686
rclavicle -5.26779e-015 1.03368e-014
rhumerus -17.0929 -12.8947 -81.4657
rradius 28.4003
rwrist 28.8995
rhand -19.2279 -27.4592
rfingers 7.12502
rthumb 7.08515 -57.3206
lclavicle -5.26779e-015 1.03368e-014
lhumerus -16.9081 2.63752 86.9098
lradius 21.2691
lwrist 1.8028
lhand -23.1356 -3.37662
lfingers 7.12502
lthumb 3.31213 26.5774
rfemur -15.6666 -3.93353 19.9316
rtibia 21.3575
rfoot -13.1848 -0.921069
rtoes 8.76409
lfemur -16.1943 6.07815 -16.8904
ltibia 20.0357
lfoot -9.13152 4.92101
ltoes -11.0595
2
root 0.0952269 17.5495 -14.3925 7.89915 1.07342 -1.28469
lowerback -0.504138 -0.793125 0.995652
upperback 5.56743 -1.19513 1.88118
thorax 6.07423 -0.59635 1.32845
lowerneck -10.5978 -0.363982 -2.98933
upperneck 36.0452 -0.369517 1.62545
head 14.0641 -0.350459 1.13601
rclavicle 3.97569e-016 -3.18055e-015
rhumerus -17.0912 -13.1161 -81.3614
rradius 28.2073
rwrist 29.1819
rhand -19.2685 -27.3525
rfingers 7.12502
rthumb 7.04598 -57.2152
lclavicle 3.97569e-016 -3.18055e-015
lhumerus -16.9206 2.32489 87.1112
lradius 21.4839
lwrist 1.95201
lhand -23.1339 -3.32321
lfingers 7.12502
lthumb 3.31381 26.6308
rfemur -15.607 -3.95862 19.9166
rtibia 21.3548
rfoot -13.2075 -0.868035
rtoes 8.88432
lfemur -16.0909 6.11654 -16.893
ltibia 19.9768
lfoot -9.19112 4.88853
ltoes -10.8997
3
root 0.0940557 17.5493 -14.3839 7.8635 1.05602 -1.31002
lowerback -0.519664 -0.791423 1.04149
upperback 5.51039 -1.19253 1.8597
thorax 6.02111 -0.592141 1.28045
lowerneck -10.5484 -0.370341 -3.02926
upperneck 36.0245 -0.381528 1.65732
head 14.044 -0.356979 1.15386
rclavicle -6.55989e-015 -8.74653e-015
rhumerus -17.2107 -13.428 -81.2878
rradius 27.9783
rwrist 29.5824
rhand -19.4211 -27.2076
rfingers 7.12502
rthumb 6.89865 -57.0752
lclavicle -6.55989e-015 -8.74653e-015
lhumerus -16.9964 2.14912 87.201
lradius 21.5457
lwrist 1.82177
lhand -22.9746 -5.18795
lfingers 7.12502
lthumb 3.46763 24.7636
rfemur -15.544 -3.93498 19.9486
rtibia 21.3709
rfoot -13.2397 -0.888629
rtoes 8.81101
lfemur -15.9861 6.174 -16.8481
ltibia 19.9236
lfoot -9.25303 4.83879
ltoes -10.9079
4
root 0.0942638 17.5474 -14.3813 7.81461 1.04276 -1.3201
lowerback -0.584616 -0.781238 1.01687
upperback 5.5032 -1.17971 1.86616
thorax 6.05127 -0.587144 1.30089
lowerneck -10.5684 -0.367121 -2.99765
upperneck 36.0375 -0.373368 1.62715
head 14.0541 -0.35314 1.13742
rclavicle -4.77083e-015 2.0276e-014
rhumerus -17.1477 -13.6751 -81.212
rradius 27.762
rwrist 29.7376
rhand -19.2782 -27.3887
rfingers 7.12502
rthumb 7.03661 -57.2517
lclavicle -4.77083e-015 2.0276e-014
lhumerus -16.9946 1.54124 87.4779
lradius 21.7807
lwrist 2.45619
lhand -23.3613 -4.07883
lfingers 7.12502
lthumb 3.09423 25.8785
rfemur -15.4938 -3.92591 19.9531
rtibia 21.3861
rfoot -13.2532 -0.891676
rtoes 8.80388
lfemur -15.8949 6.21366 -16.8286
ltibia 19.8694
lfoot -9.28488 4.79411
ltoes -10.9913
